<mxfile host="65bd71144e">
    <diagram id="MxBKb32Fq6hxVJsZNLTl" name="第1頁">
        <mxGraphModel dx="1204" dy="670" grid="1" gridSize="10" guides="1" tooltips="1" connect="1" arrows="1" fold="1" page="1" pageScale="1" pageWidth="827" pageHeight="1169" math="0" shadow="0">
            <root>
                <mxCell id="0"/>
                <mxCell id="1" parent="0"/>
                <mxCell id="4" style="edgeStyle=none;html=1;entryX=0;entryY=0.5;entryDx=0;entryDy=0;" edge="1" parent="1" source="2" target="3">
                    <mxGeometry relative="1" as="geometry"/>
                </mxCell>
                <mxCell id="2" value="左邊一般裡面有一堆形狀可以拖進來&lt;br&gt;" style="rounded=0;whiteSpace=wrap;html=1;" vertex="1" parent="1">
                    <mxGeometry x="100" y="190" width="120" height="60" as="geometry"/>
                </mxCell>
                <mxCell id="3" value="或者直接左鍵點兩下選圖型" style="rhombus;whiteSpace=wrap;html=1;" vertex="1" parent="1">
                    <mxGeometry x="490" y="190" width="80" height="80" as="geometry"/>
                </mxCell>
                <mxCell id="6" value="形狀本身可以拖動" style="text;html=1;align=center;verticalAlign=middle;resizable=0;points=[];autosize=1;strokeColor=none;fillColor=none;" vertex="1" parent="1">
                    <mxGeometry x="50" y="275" width="120" height="30" as="geometry"/>
                </mxCell>
                <mxCell id="7" value="形狀旁邊的箭頭可以拉出去&lt;br&gt;連到另一個形狀" style="text;html=1;align=center;verticalAlign=middle;resizable=0;points=[];autosize=1;strokeColor=none;fillColor=none;" vertex="1" parent="1">
                    <mxGeometry x="270" y="240" width="170" height="40" as="geometry"/>
                </mxCell>
                <mxCell id="8" value="或者直接左鍵點兩下選圖型" style="rhombus;whiteSpace=wrap;html=1;" vertex="1" parent="1">
                    <mxGeometry x="490" y="330" width="80" height="80" as="geometry"/>
                </mxCell>
                <mxCell id="9" value="alt+左鍵 可以複製" style="text;html=1;align=center;verticalAlign=middle;resizable=0;points=[];autosize=1;strokeColor=none;fillColor=none;" vertex="1" parent="1">
                    <mxGeometry x="510" y="300" width="120" height="30" as="geometry"/>
                </mxCell>
                <mxCell id="10" value="或者直接左鍵點兩下選圖型" style="rhombus;whiteSpace=wrap;html=1;" vertex="1" parent="1">
                    <mxGeometry x="400" y="370" width="80" height="80" as="geometry"/>
                </mxCell>
                <mxCell id="11" value="或者直接左鍵點兩下選圖型" style="rhombus;whiteSpace=wrap;html=1;" vertex="1" parent="1">
                    <mxGeometry x="600" y="380" width="80" height="80" as="geometry"/>
                </mxCell>
            </root>
        </mxGraphModel>
    </diagram>
</mxfile>